ffmpeg started on 2025-05-28 at 11:46:57
Report written to "D:\Convert\FFMetrics\reports\psnr_report-6.txt"
Log level: 32
Command line:
ffmpeg -hide_banner -nostdin -i "G:\\\xc0\xed\xe8\xec\xe5\\\xce\xed\xe3\xee\xe8\xed\xe3\xe8\\!_36_\xce\xf1\xe5\xed\xfc_2024\\JamClub\\SAO\\\xc0\xeb\xfc\xf2\xe5\xf0\xed\xe0\xf2\xe8\xe2\xed\xe0\xff \xab\xcf\xf0\xe8\xe7\xf0\xe0\xf7\xed\xe0\xff \xef\xf3\xeb\xff\xbb\\\xd2\xc2-2\\JamClub_Sword_Art_Online_Alternative_Gun_Gale_Online_II_11_1080p_HEVC.mkv" -i "G:\\\xc0\xed\xe8\xec\xe5\\\xce\xed\xe3\xee\xe8\xed\xe3\xe8\\!_36_\xce\xf1\xe5\xed\xfc_2024\\JamClub\\SAO\\\xc0\xeb\xfc\xf2\xe5\xf0\xed\xe0\xf2\xe8\xe2\xed\xe0\xff \xab\xcf\xf0\xe8\xe7\xf0\xe0\xf7\xed\xe0\xff \xef\xf3\xeb\xff\xbb\\\xd2\xc2-2\\JamClub_Sword_Art_Online_Alternative_Gun_Gale_Online_II_11_1080p.mp4" -lavfi "[0:v]settb=AVTB,setpts=PTS-STARTPTS,format=pix_fmts=yuv420p10,fps=24000/1001,scale=1920:1080:flags=bicubic[main];[1:v]settb=AVTB,setpts=PTS-STARTPTS,format=pix_fmts=yuv420p,fps=24000/1001,scale=1920:1080:flags=bicubic[ref];[main][ref]psnr=eof_action=endall:stats_file='D\\:/Convert/FFMetrics/logs/psnr_logfile-6.txt'" -f null -
Input #0, matroska,webm, from 'G:\Аниме\Онгоинги\!_36_Осень_2024\JamClub\SAO\Альтернативная «Призрачная пуля»\ТВ-2\JamClub_Sword_Art_Online_Alternative_Gun_Gale_Online_II_11_1080p_HEVC.mkv':
  Metadata:
    COMPATIBLE_BRANDS: isomiso2avc1mp41
    MAJOR_BRAND     : isom
    MINOR_VERSION   : 512
    ENCODER         : Lavf61.7.100
  Duration: 00:24:02.22, start: -0.001000, bitrate: 1489 kb/s
  Stream #0:0: Video: hevc (Main 10), yuv420p10le(tv, bt709, progressive), 1920x1080 [SAR 1:1 DAR 16:9], 23.98 fps, 23.98 tbr, 1k tbn (default)
      Metadata:
        HANDLER_NAME    : VideoHandler
        VENDOR_ID       : [0][0][0][0]
        ENCODER         : Lavc61.19.100 libx265
        BPS             : 1291368
        DURATION        : 00:24:02.148708333
        NUMBER_OF_FRAMES: 34577
        NUMBER_OF_BYTES : 232792992
        _STATISTICS_WRITING_APP: mkvpropedit v66.0.0 ('Josie') 64-bit
        _STATISTICS_WRITING_DATE_UTC: 2025-05-27 17:14:52
        _STATISTICS_TAGS: BPS DURATION NUMBER_OF_FRAMES NUMBER_OF_BYTES
  Stream #0:1(eng): Audio: aac (LC), 48000 Hz, stereo, fltp (default)
      Metadata:
        HANDLER_NAME    : SoundHandler
        VENDOR_ID       : [0][0][0][0]
        ENCODER         : Lavc61.19.100 aac
        BPS             : 194206
        DURATION        : 00:24:02.179000000
        NUMBER_OF_FRAMES: 67603
        NUMBER_OF_BYTES : 35009995
        _STATISTICS_WRITING_APP: mkvpropedit v66.0.0 ('Josie') 64-bit
        _STATISTICS_WRITING_DATE_UTC: 2025-05-27 17:14:52
        _STATISTICS_TAGS: BPS DURATION NUMBER_OF_FRAMES NUMBER_OF_BYTES
Input #1, mov,mp4,m4a,3gp,3g2,mj2, from 'G:\Аниме\Онгоинги\!_36_Осень_2024\JamClub\SAO\Альтернативная «Призрачная пуля»\ТВ-2\JamClub_Sword_Art_Online_Alternative_Gun_Gale_Online_II_11_1080p.mp4':
  Metadata:
    major_brand     : isom
    minor_version   : 512
    compatible_brands: isomiso2avc1mp41
    encoder         : Lavf60.16.100
  Duration: 00:24:02.20, start: 0.000000, bitrate: 5065 kb/s
  Stream #1:0[0x1](und): Video: h264 (High) (avc1 / 0x31637661), yuv420p(progressive), 1920x1080 [SAR 1:1 DAR 16:9], 4867 kb/s, 23.98 fps, 23.98 tbr, 90k tbn (default)
      Metadata:
        handler_name    : VideoHandler
        vendor_id       : [0][0][0][0]
  Stream #1:1[0x2](eng): Audio: aac (LC) (mp4a / 0x6134706D), 48000 Hz, stereo, fltp, 191 kb/s (default)
      Metadata:
        handler_name    : SoundHandler
        vendor_id       : [0][0][0][0]
Stream mapping:
  Stream #0:0 (hevc) -> settb:default
  Stream #1:0 (h264) -> settb:default
  psnr:default -> Stream #0:0 (wrapped_avframe)
  Stream #0:1 -> #0:1 (aac (native) -> pcm_s16le (native))
Output #0, null, to 'pipe:':
  Metadata:
    COMPATIBLE_BRANDS: isomiso2avc1mp41
    MAJOR_BRAND     : isom
    MINOR_VERSION   : 512
    encoder         : Lavf61.7.100
  Stream #0:0: Video: wrapped_avframe, yuv420p10le(tv, bt709, progressive), 1920x1080 [SAR 1:1 DAR 16:9], q=2-31, 200 kb/s, 23.98 fps, 23.98 tbn
      Metadata:
        encoder         : Lavc61.19.100 wrapped_avframe
  Stream #0:1(eng): Audio: pcm_s16le, 48000 Hz, stereo, s16, 1536 kb/s (default)
      Metadata:
        HANDLER_NAME    : SoundHandler
        VENDOR_ID       : [0][0][0][0]
        _STATISTICS_TAGS: BPS DURATION NUMBER_OF_FRAMES NUMBER_OF_BYTES
        BPS             : 194206
        DURATION        : 00:24:02.179000000
        NUMBER_OF_FRAMES: 67603
        NUMBER_OF_BYTES : 35009995
        _STATISTICS_WRITING_APP: mkvpropedit v66.0.0 ('Josie') 64-bit
        _STATISTICS_WRITING_DATE_UTC: 2025-05-27 17:14:52
        encoder         : Lavc61.19.100 pcm_s16le
frame=  114 fps=0.0 q=-0.0 size=N/A time=00:00:04.75 bitrate=N/A speed=9.17x    frame=  281 fps=270 q=-0.0 size=N/A time=00:00:11.72 bitrate=N/A speed=11.3x    frame=  473 fps=305 q=-0.0 size=N/A time=00:00:19.72 bitrate=N/A speed=12.7x    frame=  654 fps=318 q=-0.0 size=N/A time=00:00:27.27 bitrate=N/A speed=13.3x    frame=  886 fps=343 q=-0.0 size=N/A time=00:00:36.95 bitrate=N/A speed=14.3x    frame= 1132 fps=366 q=-0.0 size=N/A time=00:00:47.21 bitrate=N/A speed=15.3x    frame= 1377 fps=382 q=-0.0 size=N/A time=00:00:57.43 bitrate=N/A speed=15.9x    frame= 1613 fps=390 q=-0.0 size=N/A time=00:01:07.27 bitrate=N/A speed=16.3x    frame= 1862 fps=400 q=-0.0 size=N/A time=00:01:17.66 bitrate=N/A speed=16.7x    frame= 2080 fps=402 q=-0.0 size=N/A time=00:01:26.75 bitrate=N/A speed=16.7x    frame= 2313 fps=407 q=-0.0 size=N/A time=00:01:36.47 bitrate=N/A speed=  17x    frame= 2540 fps=410 q=-0.0 size=N/A time=00:01:45.93 bitrate=N/A speed=17.1x    frame= 2813 fps=418 q=-0.0 size=N/A time=00:01:57.32 bitrate=N/A speed=17.4x    frame= 3071 fps=424 q=-0.0 size=N/A time=00:02:08.08 bitrate=N/A speed=17.7x    frame= 3319 fps=428 q=-0.0 size=N/A time=00:02:18.42 bitrate=N/A speed=17.8x    frame= 3581 fps=433 q=-0.0 size=N/A time=00:02:29.35 bitrate=N/A speed=18.1x    frame= 3836 fps=437 q=-0.0 size=N/A time=00:02:39.99 bitrate=N/A speed=18.2x    frame= 4033 fps=434 q=-0.0 size=N/A time=00:02:48.20 bitrate=N/A speed=18.1x    frame= 4240 fps=432 q=-0.0 size=N/A time=00:02:56.84 bitrate=N/A speed=  18x    frame= 4467 fps=432 q=-0.0 size=N/A time=00:03:06.31 bitrate=N/A speed=  18x    frame= 4682 fps=432 q=-0.0 size=N/A time=00:03:15.27 bitrate=N/A speed=  18x    frame= 4854 fps=427 q=-0.0 size=N/A time=00:03:22.45 bitrate=N/A speed=17.8x    frame= 5037 fps=424 q=-0.0 size=N/A time=00:03:30.08 bitrate=N/A speed=17.7x    frame= 5167 fps=417 q=-0.0 size=N/A time=00:03:35.50 bitrate=N/A speed=17.4x    frame= 5340 fps=414 q=-0.0 size=N/A time=00:03:42.72 bitrate=N/A speed=17.2x    frame= 5527 fps=412 q=-0.0 size=N/A time=00:03:50.52 bitrate=N/A speed=17.2x    frame= 5685 fps=408 q=-0.0 size=N/A time=00:03:57.11 bitrate=N/A speed=  17x    frame= 5841 fps=404 q=-0.0 size=N/A time=00:04:03.61 bitrate=N/A speed=16.9x    frame= 6047 fps=404 q=-0.0 size=N/A time=00:04:12.21 bitrate=N/A speed=16.9x    frame= 6308 fps=407 q=-0.0 size=N/A time=00:04:23.09 bitrate=N/A speed=  17x    frame= 6550 fps=409 q=-0.0 size=N/A time=00:04:33.18 bitrate=N/A speed=17.1x    frame= 6815 fps=412 q=-0.0 size=N/A time=00:04:44.24 bitrate=N/A speed=17.2x    frame= 7082 fps=416 q=-0.0 size=N/A time=00:04:55.37 bitrate=N/A speed=17.3x    frame= 7358 fps=419 q=-0.0 size=N/A time=00:05:06.88 bitrate=N/A speed=17.5x    frame= 7611 fps=421 q=-0.0 size=N/A time=00:05:17.44 bitrate=N/A speed=17.6x    frame= 7828 fps=421 q=-0.0 size=N/A time=00:05:26.49 bitrate=N/A speed=17.6x    frame= 8052 fps=421 q=-0.0 size=N/A time=00:05:35.83 bitrate=N/A speed=17.6x    frame= 8286 fps=422 q=-0.0 size=N/A time=00:05:45.59 bitrate=N/A speed=17.6x    frame= 8549 fps=425 q=-0.0 size=N/A time=00:05:56.56 bitrate=N/A speed=17.7x    frame= 8795 fps=426 q=-0.0 size=N/A time=00:06:06.82 bitrate=N/A speed=17.8x    frame= 9025 fps=427 q=-0.0 size=N/A time=00:06:16.41 bitrate=N/A speed=17.8x    frame= 9242 fps=426 q=-0.0 size=N/A time=00:06:25.46 bitrate=N/A speed=17.8x    frame= 9474 fps=427 q=-0.0 size=N/A time=00:06:35.14 bitrate=N/A speed=17.8x    frame= 9737 fps=429 q=-0.0 size=N/A time=00:06:46.11 bitrate=N/A speed=17.9x    frame=10005 fps=431 q=-0.0 size=N/A time=00:06:57.29 bitrate=N/A speed=  18x    frame=10270 fps=433 q=-0.0 size=N/A time=00:07:08.34 bitrate=N/A speed=  18x    frame=10505 fps=433 q=-0.0 size=N/A time=00:07:18.14 bitrate=N/A speed=18.1x    frame=10760 fps=434 q=-0.0 size=N/A time=00:07:28.78 bitrate=N/A speed=18.1x    frame=11031 fps=436 q=-0.0 size=N/A time=00:07:40.08 bitrate=N/A speed=18.2x    frame=11288 fps=437 q=-0.0 size=N/A time=00:07:50.80 bitrate=N/A speed=18.2x    frame=11541 fps=439 q=-0.0 size=N/A time=00:08:01.35 bitrate=N/A speed=18.3x    frame=11791 fps=439 q=-0.0 size=N/A time=00:08:11.78 bitrate=N/A speed=18.3x    frame=12041 fps=440 q=-0.0 size=N/A time=00:08:22.21 bitrate=N/A speed=18.4x    frame=12287 fps=441 q=-0.0 size=N/A time=00:08:32.47 bitrate=N/A speed=18.4x    frame=12478 fps=440 q=-0.0 size=N/A time=00:08:40.43 bitrate=N/A speed=18.3x    frame=12692 fps=439 q=-0.0 size=N/A time=00:08:49.36 bitrate=N/A speed=18.3x    frame=12921 fps=439 q=-0.0 size=N/A time=00:08:58.91 bitrate=N/A speed=18.3x    frame=13158 fps=440 q=-0.0 size=N/A time=00:09:08.79 bitrate=N/A speed=18.3x    frame=13367 fps=439 q=-0.0 size=N/A time=00:09:17.51 bitrate=N/A speed=18.3x    frame=13627 fps=440 q=-0.0 size=N/A time=00:09:28.35 bitrate=N/A speed=18.4x    frame=13862 fps=440 q=-0.0 size=N/A time=00:09:38.16 bitrate=N/A speed=18.4x    frame=14088 fps=440 q=-0.0 size=N/A time=00:09:47.58 bitrate=N/A speed=18.4x    frame=14317 fps=441 q=-0.0 size=N/A time=00:09:57.13 bitrate=N/A speed=18.4x    frame=14577 fps=441 q=-0.0 size=N/A time=00:10:07.98 bitrate=N/A speed=18.4x    frame=14835 fps=442 q=-0.0 size=N/A time=00:10:18.74 bitrate=N/A speed=18.5x    frame=15098 fps=443 q=-0.0 size=N/A time=00:10:29.71 bitrate=N/A speed=18.5x    frame=15319 fps=443 q=-0.0 size=N/A time=00:10:38.92 bitrate=N/A speed=18.5x    frame=15531 fps=443 q=-0.0 size=N/A time=00:10:47.77 bitrate=N/A speed=18.5x    frame=15730 fps=442 q=-0.0 size=N/A time=00:10:56.07 bitrate=N/A speed=18.4x    frame=15954 fps=442 q=-0.0 size=N/A time=00:11:05.41 bitrate=N/A speed=18.4x    frame=16207 fps=442 q=-0.0 size=N/A time=00:11:15.96 bitrate=N/A speed=18.5x    frame=16439 fps=443 q=-0.0 size=N/A time=00:11:25.64 bitrate=N/A speed=18.5x    frame=16698 fps=443 q=-0.0 size=N/A time=00:11:36.44 bitrate=N/A speed=18.5x    frame=16954 fps=444 q=-0.0 size=N/A time=00:11:47.12 bitrate=N/A speed=18.5x    frame=17205 fps=445 q=-0.0 size=N/A time=00:11:57.59 bitrate=N/A speed=18.5x    frame=17474 fps=446 q=-0.0 size=N/A time=00:12:08.81 bitrate=N/A speed=18.6x    frame=17737 fps=447 q=-0.0 size=N/A time=00:12:19.78 bitrate=N/A speed=18.6x    frame=17957 fps=446 q=-0.0 size=N/A time=00:12:28.95 bitrate=N/A speed=18.6x    frame=18185 fps=446 q=-0.0 size=N/A time=00:12:38.46 bitrate=N/A speed=18.6x    frame=18396 fps=446 q=-0.0 size=N/A time=00:12:47.26 bitrate=N/A speed=18.6x    frame=18604 fps=445 q=-0.0 size=N/A time=00:12:55.94 bitrate=N/A speed=18.6x    frame=18829 fps=445 q=-0.0 size=N/A time=00:13:05.32 bitrate=N/A speed=18.6x    frame=19076 fps=445 q=-0.0 size=N/A time=00:13:15.62 bitrate=N/A speed=18.6x    frame=19338 fps=446 q=-0.0 size=N/A time=00:13:26.55 bitrate=N/A speed=18.6x    frame=19598 fps=447 q=-0.0 size=N/A time=00:13:37.39 bitrate=N/A speed=18.6x    frame=19854 fps=448 q=-0.0 size=N/A time=00:13:48.07 bitrate=N/A speed=18.7x    frame=20057 fps=447 q=-0.0 size=N/A time=00:13:56.54 bitrate=N/A speed=18.6x    frame=20276 fps=447 q=-0.0 size=N/A time=00:14:05.67 bitrate=N/A speed=18.6x    frame=20508 fps=447 q=-0.0 size=N/A time=00:14:15.35 bitrate=N/A speed=18.6x    frame=20750 fps=447 q=-0.0 size=N/A time=00:14:25.44 bitrate=N/A speed=18.6x    frame=21002 fps=447 q=-0.0 size=N/A time=00:14:35.95 bitrate=N/A speed=18.7x    frame=21270 fps=448 q=-0.0 size=N/A time=00:14:47.13 bitrate=N/A speed=18.7x    frame=21530 fps=449 q=-0.0 size=N/A time=00:14:57.98 bitrate=N/A speed=18.7x    frame=21790 fps=449 q=-0.0 size=N/A time=00:15:08.82 bitrate=N/A speed=18.7x    frame=22059 fps=450 q=-0.0 size=N/A time=00:15:20.04 bitrate=N/A speed=18.8x    frame=22298 fps=450 q=-0.0 size=N/A time=00:15:30.01 bitrate=N/A speed=18.8x    frame=22567 fps=451 q=-0.0 size=N/A time=00:15:41.23 bitrate=N/A speed=18.8x    frame=22839 fps=452 q=-0.0 size=N/A time=00:15:52.57 bitrate=N/A speed=18.8x    frame=23073 fps=452 q=-0.0 size=N/A time=00:16:02.33 bitrate=N/A speed=18.8x    frame=23275 fps=451 q=-0.0 size=N/A time=00:16:10.76 bitrate=N/A speed=18.8x    frame=23459 fps=450 q=-0.0 size=N/A time=00:16:18.43 bitrate=N/A speed=18.8x    frame=23693 fps=450 q=-0.0 size=N/A time=00:16:28.19 bitrate=N/A speed=18.8x    frame=23920 fps=450 q=-0.0 size=N/A time=00:16:37.66 bitrate=N/A speed=18.8x    frame=24178 fps=451 q=-0.0 size=N/A time=00:16:48.42 bitrate=N/A speed=18.8x    frame=24415 fps=451 q=-0.0 size=N/A time=00:16:58.30 bitrate=N/A speed=18.8x    frame=24640 fps=451 q=-0.0 size=N/A time=00:17:07.69 bitrate=N/A speed=18.8x    frame=24868 fps=450 q=-0.0 size=N/A time=00:17:17.20 bitrate=N/A speed=18.8x    frame=25135 fps=451 q=-0.0 size=N/A time=00:17:28.33 bitrate=N/A speed=18.8x    frame=25389 fps=451 q=-0.0 size=N/A time=00:17:38.93 bitrate=N/A speed=18.8x    frame=25571 fps=451 q=-0.0 size=N/A time=00:17:46.52 bitrate=N/A speed=18.8x    frame=25832 fps=451 q=-0.0 size=N/A time=00:17:57.40 bitrate=N/A speed=18.8x    frame=26080 fps=451 q=-0.0 size=N/A time=00:18:07.75 bitrate=N/A speed=18.8x    frame=26337 fps=452 q=-0.0 size=N/A time=00:18:18.47 bitrate=N/A speed=18.8x    frame=26569 fps=452 q=-0.0 size=N/A time=00:18:28.14 bitrate=N/A speed=18.8x    frame=26819 fps=452 q=-0.0 size=N/A time=00:18:38.57 bitrate=N/A speed=18.9x    frame=27082 fps=453 q=-0.0 size=N/A time=00:18:49.54 bitrate=N/A speed=18.9x    frame=27302 fps=452 q=-0.0 size=N/A time=00:18:58.72 bitrate=N/A speed=18.9x    frame=27505 fps=452 q=-0.0 size=N/A time=00:19:07.18 bitrate=N/A speed=18.8x    frame=27724 fps=452 q=-0.0 size=N/A time=00:19:16.32 bitrate=N/A speed=18.8x    frame=27940 fps=451 q=-0.0 size=N/A time=00:19:25.33 bitrate=N/A speed=18.8x    frame=28178 fps=451 q=-0.0 size=N/A time=00:19:35.25 bitrate=N/A speed=18.8x    frame=28441 fps=452 q=-0.0 size=N/A time=00:19:46.22 bitrate=N/A speed=18.8x    frame=28716 fps=453 q=-0.0 size=N/A time=00:19:57.69 bitrate=N/A speed=18.9x    frame=28973 fps=453 q=-0.0 size=N/A time=00:20:08.41 bitrate=N/A speed=18.9x    frame=29244 fps=453 q=-0.0 size=N/A time=00:20:19.71 bitrate=N/A speed=18.9x    frame=29523 fps=454 q=-0.0 size=N/A time=00:20:31.35 bitrate=N/A speed=18.9x    frame=29787 fps=455 q=-0.0 size=N/A time=00:20:42.36 bitrate=N/A speed=  19x    frame=30041 fps=455 q=-0.0 size=N/A time=00:20:52.96 bitrate=N/A speed=  19x    frame=30297 fps=455 q=-0.0 size=N/A time=00:21:03.63 bitrate=N/A speed=  19x    frame=30540 fps=455 q=-0.0 size=N/A time=00:21:13.77 bitrate=N/A speed=  19x    frame=30777 fps=455 q=-0.0 size=N/A time=00:21:23.65 bitrate=N/A speed=  19x    frame=31031 fps=456 q=-0.0 size=N/A time=00:21:34.25 bitrate=N/A speed=  19x    frame=31217 fps=455 q=-0.0 size=N/A time=00:21:42.00 bitrate=N/A speed=  19x    frame=31443 fps=455 q=-0.0 size=N/A time=00:21:51.43 bitrate=N/A speed=  19x    frame=31622 fps=454 q=-0.0 size=N/A time=00:21:58.90 bitrate=N/A speed=18.9x    frame=31820 fps=454 q=-0.0 size=N/A time=00:22:07.15 bitrate=N/A speed=18.9x    frame=32005 fps=453 q=-0.0 size=N/A time=00:22:14.87 bitrate=N/A speed=18.9x    frame=32225 fps=453 q=-0.0 size=N/A time=00:22:24.05 bitrate=N/A speed=18.9x    frame=32378 fps=452 q=-0.0 size=N/A time=00:22:30.43 bitrate=N/A speed=18.8x    frame=32536 fps=451 q=-0.0 size=N/A time=00:22:37.02 bitrate=N/A speed=18.8x    frame=32681 fps=449 q=-0.0 size=N/A time=00:22:43.07 bitrate=N/A speed=18.7x    frame=32794 fps=448 q=-0.0 size=N/A time=00:22:47.78 bitrate=N/A speed=18.7x    frame=32924 fps=446 q=-0.0 size=N/A time=00:22:53.20 bitrate=N/A speed=18.6x    frame=33054 fps=445 q=-0.0 size=N/A time=00:22:58.62 bitrate=N/A speed=18.6x    frame=33200 fps=444 q=-0.0 size=N/A time=00:23:04.71 bitrate=N/A speed=18.5x    frame=33332 fps=443 q=-0.0 size=N/A time=00:23:10.22 bitrate=N/A speed=18.5x    frame=33471 fps=441 q=-0.0 size=N/A time=00:23:16.01 bitrate=N/A speed=18.4x    frame=33595 fps=440 q=-0.0 size=N/A time=00:23:21.19 bitrate=N/A speed=18.4x    frame=33729 fps=439 q=-0.0 size=N/A time=00:23:26.78 bitrate=N/A speed=18.3x    frame=33855 fps=437 q=-0.0 size=N/A time=00:23:32.03 bitrate=N/A speed=18.2x    frame=34010 fps=437 q=-0.0 size=N/A time=00:23:38.50 bitrate=N/A speed=18.2x    frame=34231 fps=436 q=-0.0 size=N/A time=00:23:47.71 bitrate=N/A speed=18.2x    frame=34449 fps=436 q=-0.0 size=N/A time=00:23:56.81 bitrate=N/A speed=18.2x    [Parsed_psnr_10 @ 00000198fd6ed0c0] PSNR y:47.455059 u:50.793271 v:49.840782 average:48.211428 min:37.687346 max:inf
[out#0/null @ 00000198fd57ee80] video:14857KiB audio:270412KiB subtitle:0KiB other streams:0KiB global headers:0KiB muxing overhead: unknown
frame=34577 fps=437 q=-0.0 Lsize=N/A time=00:24:02.14 bitrate=N/A speed=18.2x    
